<svg xmlns="http://www.w3.org/2000/svg" viewBox="0 0 64 64" fill="none">
  <rect width="64" height="64" rx="14" fill="#E1F5EE"/>
  <path fill="#9FE1CB" d="M32 9C23 11 15 18 14 27c-1 9 4 17 18 21 14-4 19-12 18-21C49 18 41 11 32 9z"/>
  <path fill="none" stroke="#04342C" stroke-width="1.85" stroke-linecap="square" stroke-linejoin="miter"
        d="M32 41V27m0 0h-11v10m11-10h13V17"/>
  <path fill="none" stroke="#1D9E75" stroke-width="1.65" stroke-linecap="square" stroke-linejoin="miter"
        d="M26 21h13v9h-9"/>
  <circle cx="32" cy="41" r="2.5" fill="#04342C"/>
  <circle cx="32" cy="27" r="2.5" fill="#04342C"/>
  <circle cx="21" cy="37" r="2.5" fill="#04342C"/>
  <circle cx="45" cy="17" r="2.5" fill="#04342C"/>
  <circle cx="26" cy="21" r="2.35" fill="#04342C"/>
  <circle cx="39" cy="30" r="2.35" fill="#04342C"/>
</svg>
