<svg xmlns="http://www.w3.org/2000/svg" viewBox="0 0 64 64" fill="none" role="img" aria-labelledby="anddbaayMarkMonoTitle">
  <title id="anddbaayMarkMonoTitle">Andd Baay</title>
  <!-- Variante monochrome (contraste réduit / fond sombre) -->
  <rect width="64" height="64" rx="14" fill="#ffffff" fill-opacity=".14"/>
  <path fill="#f3f4f6" fill-opacity=".92" d="M32 9C23 11 15 18 14 27c-1 9 4 17 18 21 14-4 19-12 18-21C49 18 41 11 32 9z"/>
  <path fill="none" stroke="#e5e7eb" stroke-width="1.85" stroke-linecap="square" stroke-linejoin="miter"
        d="M32 41V27m0 0h-11v10m11-10h13V17"/>
  <path fill="none" stroke="#d1d5db" stroke-width="1.65" stroke-linecap="square" stroke-linejoin="miter"
        d="M26 21h13v9h-9"/>
  <circle cx="32" cy="41" r="2.5" fill="#e5e7eb"/>
  <circle cx="32" cy="27" r="2.5" fill="#e5e7eb"/>
  <circle cx="21" cy="37" r="2.5" fill="#e5e7eb"/>
  <circle cx="45" cy="17" r="2.5" fill="#e5e7eb"/>
  <circle cx="26" cy="21" r="2.35" fill="#e5e7eb"/>
  <circle cx="39" cy="30" r="2.35" fill="#e5e7eb"/>
</svg>
